# MagicaVoxel @ Ephtracy

# group
g building1

# material
mtllib building1.mtl
usemtl palette

# normals
vn -1 0 0
vn 1 0 0
vn 0 -1 0
vn 0 1 0
vn 0 0 -1
vn 0 0 1

# texcoords
vt 0.0292969 0.5
vt 0.0527344 0.5
vt 0.619141 0.5
vt 0.677734 0.5
vt 0.779297 0.5
vt 0.783203 0.5
vt 0.919922 0.5
vt 0.931641 0.5
vt 0.947266 0.5
vt 0.958984 0.5

# verts
v -14 -7 0
v -14 5 0
v -14 -7 9
v -14 5 9
v -14 -7 10
v -14 5 10
v -13 -14 0
v -13 -9 0
v -13 -14 5
v -13 -9 5
v -11 7 0
v -11 12 0
v -11 7 5
v -11 12 5
v -7 -14 0
v -7 -9 0
v -7 -14 5
v -7 -9 5
v -5 7 0
v -5 12 0
v -5 7 5
v -5 12 5
v 0 -12 0
v 0 -7 0
v 0 -5 0
v 0 0 0
v 0 -12 5
v 0 -7 5
v 0 -5 5
v 0 0 5
v 3 2 0
v 3 14 0
v 3 2 9
v 3 14 9
v 3 2 10
v 3 14 10
v 6 -12 0
v 6 -7 0
v 6 -5 0
v 6 0 0
v 6 -12 5
v 6 -7 5
v 6 -5 5
v 6 0 5
v -8 -14 0
v -8 -9 0
v -8 -14 5
v -8 -9 5
v -6 7 0
v -6 12 0
v -6 7 5
v -6 12 5
v -2 -14 0
v -2 -9 0
v -2 -7 0
v -2 5 0
v -2 -14 5
v -2 -9 5
v -2 -7 9
v -2 5 9
v -2 -7 10
v -2 5 10
v 0 7 0
v 0 12 0
v 0 7 5
v 0 12 5
v 5 -12 0
v 5 -7 0
v 5 -5 0
v 5 0 0
v 5 -12 5
v 5 -7 5
v 5 -5 5
v 5 0 5
v 11 -12 0
v 11 -7 0
v 11 -5 0
v 11 0 0
v 11 -12 5
v 11 -7 5
v 11 -5 5
v 11 0 5
v 15 2 0
v 15 14 0
v 15 2 9
v 15 14 9
v 15 2 10
v 15 14 10
v -13 -14 0
v -13 -14 5
v -8 -14 0
v -8 -14 5
v -7 -14 0
v -7 -14 5
v -2 -14 0
v -2 -14 5
v 0 -12 0
v 0 -12 5
v 5 -12 0
v 5 -12 5
v 6 -12 0
v 6 -12 5
v 11 -12 0
v 11 -12 5
v -14 -7 0
v -14 -7 9
v -14 -7 10
v -2 -7 0
v -2 -7 9
v -2 -7 10
v 0 -5 0
v 0 -5 5
v 5 -5 0
v 5 -5 5
v 6 -5 0
v 6 -5 5
v 11 -5 0
v 11 -5 5
v 3 2 0
v 3 2 9
v 3 2 10
v 15 2 0
v 15 2 9
v 15 2 10
v -11 7 0
v -11 7 5
v -6 7 0
v -6 7 5
v -5 7 0
v -5 7 5
v 0 7 0
v 0 7 5
v -13 -9 0
v -13 -9 5
v -8 -9 0
v -8 -9 5
v -7 -9 0
v -7 -9 5
v -2 -9 0
v -2 -9 5
v 0 -7 0
v 0 -7 5
v 5 -7 0
v 5 -7 5
v 6 -7 0
v 6 -7 5
v 11 -7 0
v 11 -7 5
v 0 0 0
v 0 0 5
v 5 0 0
v 5 0 5
v 6 0 0
v 6 0 5
v 11 0 0
v 11 0 5
v -14 5 0
v -14 5 9
v -14 5 10
v -2 5 0
v -2 5 9
v -2 5 10
v -11 12 0
v -11 12 5
v -6 12 0
v -6 12 5
v -5 12 0
v -5 12 5
v 0 12 0
v 0 12 5
v 3 14 0
v 3 14 9
v 3 14 10
v 15 14 0
v 15 14 9
v 15 14 10
v -13 -14 0
v -8 -14 0
v -7 -14 0
v -2 -14 0
v 0 -12 0
v 5 -12 0
v 6 -12 0
v 11 -12 0
v -13 -9 0
v -8 -9 0
v -7 -9 0
v -2 -9 0
v -14 -7 0
v -2 -7 0
v 0 -7 0
v 5 -7 0
v 6 -7 0
v 11 -7 0
v 0 -5 0
v 5 -5 0
v 6 -5 0
v 11 -5 0
v 0 0 0
v 5 0 0
v 6 0 0
v 11 0 0
v 3 2 0
v 15 2 0
v -14 5 0
v -2 5 0
v -11 7 0
v -6 7 0
v -5 7 0
v 0 7 0
v -11 12 0
v -6 12 0
v -5 12 0
v 0 12 0
v 3 14 0
v 15 14 0
v -13 -14 5
v -8 -14 5
v -7 -14 5
v -2 -14 5
v 0 -12 5
v 5 -12 5
v 6 -12 5
v 11 -12 5
v -13 -9 5
v -8 -9 5
v -7 -9 5
v -2 -9 5
v 0 -7 5
v 5 -7 5
v 6 -7 5
v 11 -7 5
v 0 -5 5
v 5 -5 5
v 6 -5 5
v 11 -5 5
v 0 0 5
v 5 0 5
v 6 0 5
v 11 0 5
v -11 7 5
v -6 7 5
v -5 7 5
v 0 7 5
v -11 12 5
v -6 12 5
v -5 12 5
v 0 12 5
v -14 -7 10
v -2 -7 10
v 3 2 10
v 15 2 10
v -14 5 10
v -2 5 10
v 3 14 10
v 15 14 10

# faces
f 3/10/1 2/10/1 1/10/1
f 4/10/1 2/10/1 3/10/1
f 5/1/1 4/1/1 3/1/1
f 6/1/1 4/1/1 5/1/1
f 9/2/1 8/2/1 7/2/1
f 10/2/1 8/2/1 9/2/1
f 13/7/1 12/7/1 11/7/1
f 14/7/1 12/7/1 13/7/1
f 17/3/1 16/3/1 15/3/1
f 18/3/1 16/3/1 17/3/1
f 21/6/1 20/6/1 19/6/1
f 22/6/1 20/6/1 21/6/1
f 27/8/1 24/8/1 23/8/1
f 28/8/1 24/8/1 27/8/1
f 29/4/1 26/4/1 25/4/1
f 30/4/1 26/4/1 29/4/1
f 33/10/1 32/10/1 31/10/1
f 34/10/1 32/10/1 33/10/1
f 35/1/1 34/1/1 33/1/1
f 36/1/1 34/1/1 35/1/1
f 41/9/1 38/9/1 37/9/1
f 42/9/1 38/9/1 41/9/1
f 43/5/1 40/5/1 39/5/1
f 44/5/1 40/5/1 43/5/1
f 45/2/2 46/2/2 47/2/2
f 47/2/2 46/2/2 48/2/2
f 49/7/2 50/7/2 51/7/2
f 51/7/2 50/7/2 52/7/2
f 53/3/2 54/3/2 57/3/2
f 57/3/2 54/3/2 58/3/2
f 55/10/2 56/10/2 59/10/2
f 59/10/2 56/10/2 60/10/2
f 59/1/2 60/1/2 61/1/2
f 61/1/2 60/1/2 62/1/2
f 63/6/2 64/6/2 65/6/2
f 65/6/2 64/6/2 66/6/2
f 67/8/2 68/8/2 71/8/2
f 71/8/2 68/8/2 72/8/2
f 69/4/2 70/4/2 73/4/2
f 73/4/2 70/4/2 74/4/2
f 75/9/2 76/9/2 79/9/2
f 79/9/2 76/9/2 80/9/2
f 77/5/2 78/5/2 81/5/2
f 81/5/2 78/5/2 82/5/2
f 83/10/2 84/10/2 85/10/2
f 85/10/2 84/10/2 86/10/2
f 85/1/2 86/1/2 87/1/2
f 87/1/2 86/1/2 88/1/2
f 91/2/3 90/2/3 89/2/3
f 92/2/3 90/2/3 91/2/3
f 95/3/3 94/3/3 93/3/3
f 96/3/3 94/3/3 95/3/3
f 99/8/3 98/8/3 97/8/3
f 100/8/3 98/8/3 99/8/3
f 103/9/3 102/9/3 101/9/3
f 104/9/3 102/9/3 103/9/3
f 108/10/3 106/10/3 105/10/3
f 109/1/3 107/1/3 106/1/3
f 109/10/3 106/10/3 108/10/3
f 110/1/3 107/1/3 109/1/3
f 113/4/3 112/4/3 111/4/3
f 114/4/3 112/4/3 113/4/3
f 117/5/3 116/5/3 115/5/3
f 118/5/3 116/5/3 117/5/3
f 122/10/3 120/10/3 119/10/3
f 123/1/3 121/1/3 120/1/3
f 123/10/3 120/10/3 122/10/3
f 124/1/3 121/1/3 123/1/3
f 127/7/3 126/7/3 125/7/3
f 128/7/3 126/7/3 127/7/3
f 131/6/3 130/6/3 129/6/3
f 132/6/3 130/6/3 131/6/3
f 133/2/4 134/2/4 135/2/4
f 135/2/4 134/2/4 136/2/4
f 137/3/4 138/3/4 139/3/4
f 139/3/4 138/3/4 140/3/4
f 141/8/4 142/8/4 143/8/4
f 143/8/4 142/8/4 144/8/4
f 145/9/4 146/9/4 147/9/4
f 147/9/4 146/9/4 148/9/4
f 149/4/4 150/4/4 151/4/4
f 151/4/4 150/4/4 152/4/4
f 153/5/4 154/5/4 155/5/4
f 155/5/4 154/5/4 156/5/4
f 157/10/4 158/10/4 160/10/4
f 158/1/4 159/1/4 161/1/4
f 160/10/4 158/10/4 161/10/4
f 161/1/4 159/1/4 162/1/4
f 163/7/4 164/7/4 165/7/4
f 165/7/4 164/7/4 166/7/4
f 167/6/4 168/6/4 169/6/4
f 169/6/4 168/6/4 170/6/4
f 171/10/4 172/10/4 174/10/4
f 172/1/4 173/1/4 175/1/4
f 174/10/4 172/10/4 175/10/4
f 175/1/4 173/1/4 176/1/4
f 185/2/5 178/2/5 177/2/5
f 186/2/5 178/2/5 185/2/5
f 187/3/5 180/3/5 179/3/5
f 188/3/5 180/3/5 187/3/5
f 191/8/5 182/8/5 181/8/5
f 192/8/5 182/8/5 191/8/5
f 193/9/5 184/9/5 183/9/5
f 194/9/5 184/9/5 193/9/5
f 199/4/5 196/4/5 195/4/5
f 200/4/5 196/4/5 199/4/5
f 201/5/5 198/5/5 197/5/5
f 202/5/5 198/5/5 201/5/5
f 205/10/5 190/10/5 189/10/5
f 206/10/5 190/10/5 205/10/5
f 211/7/5 208/7/5 207/7/5
f 212/7/5 208/7/5 211/7/5
f 213/6/5 210/6/5 209/6/5
f 214/6/5 210/6/5 213/6/5
f 215/10/5 204/10/5 203/10/5
f 216/10/5 204/10/5 215/10/5
f 217/2/6 218/2/6 225/2/6
f 225/2/6 218/2/6 226/2/6
f 219/3/6 220/3/6 227/3/6
f 227/3/6 220/3/6 228/3/6
f 221/8/6 222/8/6 229/8/6
f 229/8/6 222/8/6 230/8/6
f 223/9/6 224/9/6 231/9/6
f 231/9/6 224/9/6 232/9/6
f 233/4/6 234/4/6 237/4/6
f 237/4/6 234/4/6 238/4/6
f 235/5/6 236/5/6 239/5/6
f 239/5/6 236/5/6 240/5/6
f 241/7/6 242/7/6 245/7/6
f 245/7/6 242/7/6 246/7/6
f 243/6/6 244/6/6 247/6/6
f 247/6/6 244/6/6 248/6/6
f 249/1/6 250/1/6 253/1/6
f 253/1/6 250/1/6 254/1/6
f 251/1/6 252/1/6 255/1/6
f 255/1/6 252/1/6 256/1/6
